<svg xmlns="http://www.w3.org/2000/svg" xmlns:xlink="http://www.w3.org/1999/xlink" version="1.1" x="0px" y="0px" viewBox="232 33 736 1003.75"  xml:space="preserve"><g><path fill="white" d="M600,100c-127.1,0-230.2,103.1-230.2,230.2c0,63.6,25.8,121.1,67.4,162.8c59.9,59.9,79.1,65.8,79.1,122.9   c0,0.1,0,0.2,0,0.2h67.4V472.4c0-9,7.3-16.3,16.3-16.3s16.3,7.3,16.3,16.3v143.6h67.4c0-0.1,0-0.2,0-0.2c0-57,19.3-63,79.1-122.9   c41.7-41.7,67.4-99.2,67.4-162.8C830.2,203.1,727.1,100,600,100z M655.1,429.9l-104.2,19.3c-8.8,1.6-17.3-4.2-18.9-13   c-1.6-8.8,4.2-17.3,13-18.9l104.2-19.3c8.8-1.6,17.3,4.2,18.9,13C669.7,419.8,663.9,428.2,655.1,429.9z M655.1,382.9l-104.2,19.3   c-8.8,1.6-17.3-4.2-18.9-13c-1.6-8.8,4.2-17.3,13-18.9l104.2-19.3c8.8-1.6,17.3,4.2,18.9,13C669.7,372.8,663.9,381.2,655.1,382.9z    M655.1,335.9l-104.2,19.3c-8.8,1.6-17.3-4.2-18.9-13c-1.6-8.8,4.2-17.3,13-18.9l104.2-19.3c8.8-1.6,17.3,4.2,18.9,13   C669.7,325.8,663.9,334.2,655.1,335.9z"/></g><path fill="white" d="M599.8,759c-20.5,0-38.7-10-48.6-24.8h97.2C638.5,749,620.5,759,599.8,759z"/><path fill="white" d="M680.4,719.6H519.2c-6.3,0-11.5-8.5-11.5-18.7c0-10.2,5.2-18.4,11.5-18.4h161.2c6.3,0,11.5,8.3,11.5,18.4  C691.9,711.1,686.7,719.6,680.4,719.6z"/><path fill="white" d="M680.4,669H519.2c-6.3,0-11.5-8.4-11.5-18.5c0-10.5,5.2-18.6,11.5-18.6h161.2c6.3,0,11.5,8.2,11.5,18.6  C691.9,660.6,686.7,669,680.4,669z"/></svg>